<svg width="32" height="32" viewBox="0 0 32 32" fill="none" xmlns="http://www.w3.org/2000/svg">
<g clip-path="url(#clip0_43_62)">
<path d="M24 0H8C3.58172 0 0 3.58172 0 8V24C0 28.4183 3.58172 32 8 32H24C28.4183 32 32 28.4183 32 24V8C32 3.58172 28.4183 0 24 0Z" fill="#9BD7D0" fill-opacity="0.35"/>
<path d="M13.5501 19.15L22.0251 10.675C22.2251 10.475 22.4584 10.375 22.7251 10.375C22.9918 10.375 23.2251 10.475 23.4251 10.675C23.6251 10.875 23.7251 11.1127 23.7251 11.388C23.7251 11.6633 23.6251 11.9007 23.4251 12.1L14.2501 21.3C14.0501 21.5 13.8168 21.6 13.5501 21.6C13.2834 21.6 13.0501 21.5 12.8501 21.3L8.55006 17C8.35006 16.8 8.25406 16.5627 8.26206 16.288C8.27006 16.0133 8.37439 15.7757 8.57506 15.575C8.77572 15.3743 9.01339 15.2743 9.28806 15.275C9.56272 15.2757 9.80006 15.3757 10.0001 15.575L13.5501 19.15Z" fill="#16766C"/>
</g>
<defs>
<clipPath id="clip0_43_62">
<rect width="32" height="32" fill="white"/>
</clipPath>
</defs>
</svg>
